<svg xmlns="http://www.w3.org/2000/svg" width="256" height="256" viewBox="0 0 256 256"><defs><linearGradient id="g" x1="0" y1="0" x2="1" y2="1"><stop stop-color="#123f95"/><stop offset="1" stop-color="#04183f"/></linearGradient><linearGradient id="p" x1="0" y1="0" x2="1" y2="1"><stop stop-color="#6ff8ff"/><stop offset="1" stop-color="#1e63ff"/></linearGradient></defs><rect x="8" y="8" width="240" height="240" rx="52" fill="url(#g)"/><path d="M128 32a64 64 0 0 0-64 64c0 42 51 88 61 96a4.6 4.6 0 0 0 6 0c10-8 61-54 61-96a64 64 0 0 0-64-64z" fill="url(#p)"/><circle cx="128" cy="96" r="34" fill="#061c57"/><path d="M152 76 128 100c-14 13-8 27 8 35l24 13" fill="none" stroke="#fff" stroke-width="14" stroke-linecap="round" stroke-linejoin="round"/><circle cx="184" cy="180" r="27" fill="#20f2f0"/><rect x="168" y="166" width="32" height="28" rx="4" fill="#b9fbff" opacity=".85"/></svg>