<svg xmlns="http://www.w3.org/2000/svg" width="1024" height="1024" viewBox="0 0 1024 1024"><defs><linearGradient id="bg" x1="128" y1="80" x2="896" y2="944"><stop offset="0" stop-color="#123F95"/><stop offset="1" stop-color="#04183F"/></linearGradient><linearGradient id="pin" x1="280" y1="132" x2="712" y2="812"><stop offset="0" stop-color="#6FF8FF"/><stop offset="1" stop-color="#1E63FF"/></linearGradient></defs><rect x="64" y="64" width="896" height="896" rx="190" fill="url(#bg)"/><g opacity="0.18" fill="none" stroke="#61B8FF" stroke-width="16" stroke-linecap="round"><path d="M108 292 C234 314 294 406 252 520 C211 634 252 738 414 810"/><path d="M770 164 C686 244 712 318 862 374"/></g><path fill="url(#pin)" d="M512 128C353 128 224 257 224 416c0 196 242 404 274 431 8 7 20 7 28 0 32-27 274-235 274-431 0-159-129-288-288-288z"/><circle cx="512" cy="406" r="150" fill="#061C57"/><path d="M610 314 L512 412 C480 444 446 477 454 522 C460 554 489 573 522 588 L588 620 C616 634 633 661 628 692" fill="none" stroke="#F4F7FF" stroke-width="34" stroke-linecap="round" stroke-linejoin="round"/><circle cx="512" cy="412" r="42" fill="#F7FAFF"/><circle cx="742" cy="718" r="126" fill="#20F2F0" opacity="0.78"/></svg>