<svg xmlns="http://www.w3.org/2000/svg" width="128" height="128" viewBox="0 0 128 128"><rect width="128" height="128" rx="24" fill="#08245a"/><path d="M64 16a32 32 0 0 0-32 32c0 21 25.5 44 30.5 48a2.3 2.3 0 0 0 3 0C70.5 92 96 69 96 48a32 32 0 0 0-32-32z" fill="#28b8ff"/><circle cx="64" cy="48" r="17" fill="#061c57"/><path d="M76 38 64 50c-7 6.5-4 13.5 4 17.5l12 6.5" fill="none" stroke="#fff" stroke-width="7" stroke-linecap="round" stroke-linejoin="round"/><circle cx="92" cy="90" r="13.5" fill="#20f2f0"/><rect x="84" y="83" width="16" height="14" rx="2" fill="#b9fbff" opacity=".85"/></svg>