<svg xmlns="http://www.w3.org/2000/svg" width="512" height="512" viewBox="0 0 512 512"><defs><linearGradient id="g" x1="0" y1="0" x2="1" y2="1"><stop stop-color="#123f95"/><stop offset="1" stop-color="#04183f"/></linearGradient><linearGradient id="p" x1="0" y1="0" x2="1" y2="1"><stop stop-color="#6ff8ff"/><stop offset="1" stop-color="#1e63ff"/></linearGradient></defs><rect x="32" y="32" width="448" height="448" rx="95" fill="url(#g)"/><path d="M256 64a128 128 0 0 0-128 128c0 84 102 176 122 192a9 9 0 0 0 12 0c20-16 122-108 122-192A128 128 0 0 0 256 64z" fill="url(#p)"/><circle cx="256" cy="192" r="68" fill="#061c57"/><path d="M304 152 256 200c-28 26-16 54 16 70l48 26" fill="none" stroke="#fff" stroke-width="28" stroke-linecap="round" stroke-linejoin="round"/><circle cx="368" cy="360" r="54" fill="#20f2f0"/><rect x="336" y="332" width="64" height="56" rx="8" fill="#b9fbff" opacity=".85"/></svg>