<svg xmlns="http://www.w3.org/2000/svg" width="1024" height="1024" viewBox="0 0 1024 1024"><defs><linearGradient id="g" x1="0" y1="0" x2="1" y2="1"><stop stop-color="#123f95"/><stop offset="1" stop-color="#04183f"/></linearGradient><linearGradient id="p" x1="0" y1="0" x2="1" y2="1"><stop stop-color="#6ff8ff"/><stop offset="1" stop-color="#1e63ff"/></linearGradient></defs><rect x="64" y="64" width="896" height="896" rx="190" fill="url(#g)"/><path d="M512 128a256 256 0 0 0-256 256c0 168 204 352 244 384a18 18 0 0 0 24 0c40-32 244-216 244-384A256 256 0 0 0 512 128z" fill="url(#p)"/><circle cx="512" cy="384" r="136" fill="#061c57"/><path d="M608 304 512 400c-56 52-32 108 32 140l96 52" fill="none" stroke="#fff" stroke-width="56" stroke-linecap="round" stroke-linejoin="round"/><circle cx="736" cy="720" r="108" fill="#20f2f0"/><rect x="672" y="664" width="128" height="112" rx="16" fill="#b9fbff" opacity=".85"/></svg>